<mxfile host="Electron" agent="Mozilla/5.0 (Windows NT 10.0; Win64; x64) AppleWebKit/537.36 (KHTML, like Gecko) draw.io/27.0.9 Chrome/134.0.6998.205 Electron/35.4.0 Safari/537.36" version="27.0.9">
  <diagram name="第 1 页" id="MB-RkSGynEJ2wREXSDef">
    <mxGraphModel dx="1090" dy="742" grid="1" gridSize="10" guides="1" tooltips="1" connect="1" arrows="1" fold="1" page="1" pageScale="1" pageWidth="827" pageHeight="1169" math="0" shadow="0">
      <root>
        <mxCell id="0" />
        <mxCell id="1" parent="0" />
        <mxCell id="tRAce5x7RFlay_Su9SJT-4" style="edgeStyle=orthogonalEdgeStyle;rounded=0;orthogonalLoop=1;jettySize=auto;html=1;strokeWidth=2;" edge="1" parent="1" source="tRAce5x7RFlay_Su9SJT-1" target="tRAce5x7RFlay_Su9SJT-2">
          <mxGeometry relative="1" as="geometry" />
        </mxCell>
        <mxCell id="tRAce5x7RFlay_Su9SJT-1" value="调用ComputeShader&lt;br&gt;计算出每个Cube的位置" style="rounded=0;whiteSpace=wrap;html=1;sketch=1;curveFitting=1;jiggle=2;" vertex="1" parent="1">
          <mxGeometry x="280" y="200" width="200" height="80" as="geometry" />
        </mxCell>
        <mxCell id="tRAce5x7RFlay_Su9SJT-2" value="使用GPUInstance&lt;br&gt;批量绘制出所有Cube" style="rounded=0;whiteSpace=wrap;html=1;sketch=1;curveFitting=1;jiggle=2;" vertex="1" parent="1">
          <mxGeometry x="280" y="360" width="200" height="80" as="geometry" />
        </mxCell>
        <mxCell id="tRAce5x7RFlay_Su9SJT-6" value="" style="endArrow=classic;html=1;rounded=0;strokeWidth=2;" edge="1" parent="1" target="tRAce5x7RFlay_Su9SJT-1">
          <mxGeometry width="50" height="50" relative="1" as="geometry">
            <mxPoint x="380" y="120" as="sourcePoint" />
            <mxPoint x="420" y="40" as="targetPoint" />
          </mxGeometry>
        </mxCell>
      </root>
    </mxGraphModel>
  </diagram>
</mxfile>
